<?xml version="1.0" encoding="UTF-8"?>
<svg width="29px" height="21px" viewBox="0 0 29 21" version="1.1" xmlns="http://www.w3.org/2000/svg" xmlns:xlink="http://www.w3.org/1999/xlink">
    <!-- Generator: Sketch 51.3 (57544) - http://www.bohemiancoding.com/sketch -->
    <title>s</title>
    <desc>Created with Sketch.</desc>
    <defs></defs>
    <g id="Page-1" stroke="none" stroke-width="1" fill="none" fill-rule="evenodd">
        <g id="Artboard" transform="translate(-1.000000, -5.000000)" stroke="#560AEF">
            <path d="M29.528,7.906 L15.431,7.906 L15.431,11.495 C16.6150059,10.3603277 18.2676561,9.793 20.389,9.793 C21.9676746,9.793 23.3119945,10.4343269 24.422,11.717 C25.5320056,12.9996731 26.087,14.4426586 26.087,16.046 C26.087,17.7973421 25.5998382,19.2526609 24.6255,20.412 C23.6511618,21.5713391 22.3006753,22.2496657 20.574,22.447 C20.3519989,22.4716668 20.0930015,22.484 19.797,22.484 C18.8103284,22.484 17.9346705,22.2990018 17.17,21.929 C16.9233321,21.805666 16.6273351,21.6083347 16.282,21.337 L17.466,19.783 C18.0333362,20.1283351 18.785662,20.301 19.723,20.301 L20.352,20.301 C21.2646712,20.2023328 22.0909963,19.7521707 22.831,18.9505 C23.5710037,18.1488293 23.941,17.3040044 23.941,16.416 C23.941,15.1333269 23.5648371,14.0726709 22.8125,13.234 C22.0601629,12.3953291 21.0550063,11.976 19.797,11.976 C17.6509893,11.976 16.1956705,12.9503236 15.431,14.899 L15.431,25 L13.359,25 L13.359,20.782 C11.7556586,21.8920056 10.1276749,22.447 8.475,22.447 C6.62499075,22.447 5.13883894,21.8241729 4.0165,20.5785 C2.89416106,19.3328271 2.333,17.7850093 2.333,15.935 C2.333,14.2576583 2.92499408,12.8146727 4.109,11.606 C5.29300592,10.3973273 6.72365828,9.793 8.401,9.793 C10.4976771,9.793 12.1379941,10.3603277 13.322,11.495 L13.322,7.906 L2,7.906 L2,5.797 L29.528,5.797 L29.528,7.906 Z M12.989,16.305 C12.989,15.0223269 12.5758375,13.9740041 11.7495,13.16 C10.9231625,12.3459959 9.86867308,11.939 8.586,11.939 C7.37732729,11.939 6.39683709,12.3089963 5.6445,13.049 C4.89216291,13.7890037 4.516,14.7633273 4.516,15.972 C4.516,17.2300063 4.94149575,18.2659959 5.7925,19.08 C6.64350425,19.8940041 7.69799371,20.301 8.956,20.301 C10.1646727,20.301 11.1389963,19.9371703 11.879,19.2095 C12.6190037,18.4818297 12.989,17.5136727 12.989,16.305 Z" id="s"></path>
        </g>
    </g>
</svg>