<?xml version="1.0" encoding="UTF-8"?>
<svg width="23px" height="28px" viewBox="0 0 23 28" version="1.1" xmlns="http://www.w3.org/2000/svg" xmlns:xlink="http://www.w3.org/1999/xlink">
    <!-- Generator: Sketch 51.3 (57544) - http://www.bohemiancoding.com/sketch -->
    <title>a</title>
    <desc>Created with Sketch.</desc>
    <defs></defs>
    <g id="Page-1" stroke="none" stroke-width="1" fill="none" fill-rule="evenodd">
        <g id="Artboard" transform="translate(-3.000000, -1.000000)" stroke="#D01424">
            <path d="M14.3129883,9.64257812 C14.6385107,9.64257812 15.0250629,9.6324057 15.4726562,9.61206055 C15.9202496,9.59171539 16.3963191,9.58357745 16.9008789,9.58764648 C17.4054387,9.59171552 18.0686808,9.57340515 18.890625,9.53271484 C18.7685541,7.92137866 18.441002,6.88786035 17.907959,6.43212891 C17.374916,5.97639746 16.4126046,5.74446619 15.0209961,5.73632812 C13.6293876,5.72819006 12.6060417,6.05574213 11.9509277,6.71899414 C11.2958138,7.38224615 10.8339857,8.3567644 10.5654297,9.64257812 L14.3129883,9.64257812 Z M10.3579102,16.9179688 C13.6538251,16.820312 16.2335519,16.8325189 18.097168,16.9545898 C18.4145524,16.5069965 18.6871733,15.3880298 18.9150391,13.5976562 C18.9231771,13.5162756 18.9231771,13.4552411 18.9150391,13.4145508 C18.7034495,13.2029612 18.1744834,13.0727542 17.328125,13.0239258 C16.3108673,13.04834 15.3058318,13.0605469 14.3129883,13.0605469 L10.1259766,13.0605469 C10.0690101,14.3544987 10.1463206,15.6402931 10.3579102,16.9179688 Z M22.3208008,12.9506836 C22.3696292,13.1948254 22.3452153,13.658688 22.2475586,14.3422852 C21.9545884,16.6046663 21.4500361,18.1997024 20.7338867,19.1274414 C21.2384465,19.9737998 21.3930674,20.9503525 21.1977539,22.0571289 C20.9047837,23.6766031 20.2863003,24.9583286 19.3422852,25.9023438 C18.1378521,27.1067769 16.5102642,27.7089844 14.4594727,27.7089844 C13.0841403,27.7089844 11.5908284,27.2085011 9.97949219,26.2075195 C9.69466003,26.0284822 9.45459082,25.7721371 9.25927734,25.4384766 C8.81168396,24.706051 8.16878674,22.6308765 7.33056641,19.2128906 C6.83414465,17.1865133 6.62255823,15.1357526 6.69580078,13.0605469 L6,13.0605469 C5.52799243,13.0605469 5.12516443,12.8937191 4.79150391,12.5600586 C4.45784338,12.2263981 4.29101562,11.8235701 4.29101562,11.3515625 C4.29101562,10.8795549 4.45784338,10.4767269 4.79150391,10.1430664 C5.12516443,9.80940588 5.52799243,9.64257812 6,9.64257812 L7.07421875,9.64257812 C7.51367407,7.27440222 8.32339905,5.50440039 9.50341797,4.33251953 C10.8706123,2.9653252 12.6324762,2.29394519 14.7890625,2.31835938 C16.5550219,2.34277356 17.9344026,2.59098071 18.9272461,3.06298828 C19.9200896,3.53499585 20.6992973,4.25723798 21.2648926,5.22973633 C21.8304879,6.20223468 22.1783848,7.63247754 22.3085938,9.52050781 C22.8212916,9.55306006 23.2729473,9.61816357 23.6635742,9.71582031 C24.0542012,9.81347705 24.3715808,10.0657532 24.6157227,10.4726562 C24.8598645,10.8795593 24.924968,11.3108701 24.8110352,11.7666016 C24.6971023,12.222333 24.4366882,12.5722644 24.0297852,12.8164062 C23.6228821,13.0605481 23.1915713,13.1256516 22.7358398,13.0117188 C22.630045,12.9873046 22.4917001,12.9669597 22.3208008,12.9506836 Z M17.7797852,20.8730469 C17.4054343,20.498696 16.5428127,20.3033855 15.1918945,20.2871094 C13.8409763,20.2708333 12.4900784,20.2830402 11.1391602,20.3237305 C11.5623394,21.9432047 11.879719,22.9970679 12.0913086,23.4853516 C13.0190476,24.0224636 13.8084277,24.2910156 14.4594727,24.2910156 C15.566249,24.2910156 16.3637671,24.0468774 16.8520508,23.5585938 C17.3403345,23.0703101 17.6658521,22.3663783 17.8286133,21.4467773 C17.8855797,21.1538071 17.8693038,20.9625656 17.7797852,20.8730469 Z" id="a"></path>
        </g>
    </g>
</svg>